<svg xmlns="http://www.w3.org/2000/svg" version="1.1" xmlns:xlink="http://www.w3.org/1999/xlink" xmlns:svgjs="http://svgjs.com/svgjs" width="512" height="512" x="0" y="0" viewBox="0 0 512 512" style="enable-background:new 0 0 512 512" xml:space="preserve" class=""><g><path d="M509.166 233.016a8.095 8.095 0 0 0-9.101-.969c-.385.208-38.802 20.457-78.842 1.091a8.08 8.08 0 0 0-10.794 3.756 8.08 8.08 0 0 0 3.756 10.793c29.223 14.136 57.078 10.786 74.702 5.839-13.47 25.594-34.314 42.004-62.163 48.886-25.676 6.343-48.077 1.917-48.286 1.876a8.08 8.08 0 0 0-8.764 11.728l2.104 3.928c-51.924-2.198-78.321-16.842-91.482-29.281-14.9-14.084-16.188-27.925-16.23-28.43a8.081 8.081 0 0 0-16.132 0c-.034.556-4.511 53.423-107.714 57.713l2.106-3.932a8.08 8.08 0 0 0-8.764-11.728c-.218.045-22.106 4.45-47.729-1.739-28.145-6.799-49.185-23.274-62.746-49.07 6.223 1.74 13.727 3.285 22.116 3.937 21.971 1.706 54.426-2.585 84.239-32.717 26.839-27.129 53.297-32.879 70.765-32.927h.231c23.498 0 41.53 9.685 49.848 18.002a8.08 8.08 0 0 0 11.426 0c8.318-8.317 26.348-18.002 49.848-18.002h.231c17.468.047 43.925 5.798 70.766 32.927 2.265 2.29 4.61 4.494 6.972 6.552a8.082 8.082 0 0 0 10.618-12.183 114.422 114.422 0 0 1-6.102-5.735c-30.747-31.078-61.677-37.667-82.211-37.721l-.278-.001c-24.112 0-43.513 8.455-55.556 17.742-12.043-9.288-31.441-17.742-55.556-17.742l-.278.001c-20.534.056-51.464 6.645-82.211 37.721-20.272 20.491-44.124 29.919-70.878 28.016-20.378-1.447-34.996-9.222-35.122-9.291a8.082 8.082 0 0 0-11.492 9.789c18.146 51.252 54.378 69.842 81.578 76.413 14.994 3.622 28.807 4.061 38.818 3.608l-1.407 2.625a8.082 8.082 0 0 0 7.124 11.897c54.199 0 93.698-11.811 117.401-35.105 5.263-5.173 9.152-10.391 12.023-15.233 2.871 4.843 6.76 10.06 12.023 15.233 23.703 23.294 63.202 35.105 117.401 35.105a8.083 8.083 0 0 0 7.124-11.899l-1.407-2.625c10.009.451 23.825.013 38.818-3.608 27.2-6.57 63.431-25.161 81.578-76.413a8.07 8.07 0 0 0-2.371-8.827z" fill="#F3C65D" data-original="#000000"></path></g></svg>