<?xml version="1.0" encoding="utf-8"?>
<!-- Generator: Adobe Illustrator 25.2.0, SVG Export Plug-In . SVG Version: 6.00 Build 0)  -->
<svg version="1.1" id="Calque_1" xmlns:svgjs="http://svgjs.com/svgjs"
	 xmlns="http://www.w3.org/2000/svg" xmlns:xlink="http://www.w3.org/1999/xlink" x="0px" y="0px" viewBox="0 0 512 512"
	 style="enable-background:new 0 0 512 512;" xml:space="preserve">
<style type="text/css">
	.st0{fill:#F3C65D;}
</style>
<g>
	<g>
		<g>
			<path class="st0" d="M509.1,161.6L400.7,53.8c-1.7-2.2-4.5-3.4-7.3-3.4h-77.1c-5,0-9.5,3.9-10.1,9.5c-1.7,26.3-24,46.9-50.3,46.9
				s-48.6-20.7-50.3-46.9c-0.6-5-4.5-9.5-10.1-9.5h-76.5c-2.2,0-5,1.1-7.3,2.8L2.9,161.6c-3.9,3.9-3.9,10.1,0,14l84.4,84.4
				c3.9,3.9,10.1,3.9,14,0l7.8-7.8v199.4c0,5.6,4.5,10.1,10.1,10.1h274.3c5.6,0,10.1-4.5,10.1-10.1V252.6l7.3,7.3
				c3.9,3.9,10.1,3.9,14,0l84.4-84.4C513,171.6,513,165.5,509.1,161.6z M417.4,238.7l-17.3-17.3c-2.8-2.8-7.3-3.9-11.2-2.2
				c-3.9,1.7-6.1,5-6.1,9.5V442H129.2v-214c0-3.9-2.2-7.8-6.1-9.5c-3.9-1.7-7.8-0.6-11.2,2.2L94,238.7l-69.8-69.8l98.3-98.3h64.2
				c7.3,31.8,35.8,55.9,69.3,55.9s62.6-24,68.7-56.4H389l98.3,98.3L417.4,238.7z"/>
		</g>
	</g>
</g>
<g>
	<g>
		<g>
			<path class="st0" d="M245.4,341.4c-17,0-29.3,12.9-29.3,30.7c0,17.3,12.4,30.3,28.9,30.3c17.2,0,29.6-12.8,29.6-30.3
				C274.6,354.3,262.3,341.4,245.4,341.4z M245,385.9c-7.3,0-12.4-5.7-12.4-13.8c0-8.5,5.1-14.2,12.8-14.2c8,0,12.8,5.3,12.8,14.2
				C258.2,380.6,253.1,385.9,245,385.9z"/>
			<path class="st0" d="M250.7,137.6c-16.9,0-35.1,4.3-48.6,11.4c-7.2,3.8-10.5,13-7.5,20.8l3.4,8.8c2.9,7.8,12.6,11.3,20.3,7.3
				c7.5-3.9,17.2-6.2,25.9-6.2c17.1,0.3,25.7,7.8,25.7,22.4c0,13.7-8.4,26.4-23,43.6c-18.2,21.8-26.5,45.3-24,67.5l0.3,4.6
				c0.5,7,7.4,12.2,15.9,12.2h13.6c4.9,0,9.3-1.7,12.1-4.8c2.2-2.4,3.3-5.4,3-8.6l-0.3-4.3c-1-16.5,4.5-30.6,18.4-47
				c18.5-21.9,32.6-40.8,32.6-67.3C318.4,168,297.5,137.6,250.7,137.6z M273.3,254.9c-16.6,19.6-23.4,37.7-22.2,58.7h-11.6l-0.1-1.9
				c-2-17.9,5-37.1,20.2-55.4c17-20,26.9-35.3,26.9-54.2c0-23.6-16.1-38.5-42-38.9h-0.1c-10.7,0-22.4,2.7-31.7,7.4l-2.7-7.1
				c11.3-5.9,26.5-9.5,40.9-9.5c37.8,0,51.3,22.8,51.3,44.1C302,219.2,290.1,234.9,273.3,254.9z"/>
		</g>
	</g>
</g>
</svg>
