<svg xmlns="http://www.w3.org/2000/svg" version="1.1" xmlns:xlink="http://www.w3.org/1999/xlink" xmlns:svgjs="http://svgjs.com/svgjs" width="512" height="512" x="0" y="0" viewBox="0 0 512.755 512.755" style="enable-background:new 0 0 512 512" xml:space="preserve" class=""><g><g><path d="m435.781 150.838c13.57-13.477 22.635-30.531 26.213-49.32.818-4.294-.563-8.681-3.691-11.733-3.129-3.052-7.547-4.325-11.82-3.399l-42.673 9.227c-9.566 2.069-19.675-1.079-26.376-8.213l-55.426-59.005c-17.2-18.311-40.508-28.395-65.63-28.395s-48.43 10.084-65.63 28.395l-55.426 59.005c-6.702 7.134-16.808 10.281-26.376 8.213l-42.672-9.227c-4.273-.924-8.691.347-11.821 3.399-3.129 3.053-4.509 7.439-3.691 11.734 3.579 18.788 12.643 35.842 26.213 49.319 12.344 12.259 27.627 20.753 44.445 24.788v23.473c-3.648 4.166-5.866 9.613-5.866 15.573 0 7.821 2.015 15.247 5.578 21.747l-12.994 37.61c-1.76 5.095-.077 10.733 4.189 14.028l14.456 11.168 19.664 34.008-61.086 49.46c-3.723 3.014-5.36 7.784-4.273 12.449 1.087 4.666 4.664 8.221 9.335 9.279l11.184 2.534-21.207 26.492c-3.632 4.537-5.688 10.004-5.944 15.81l-2.459 55.667c-.183 4.138 3.023 7.641 7.162 7.824.113.005.225.007.337.007 3.989 0 7.309-3.144 7.487-7.169l2.459-55.667c.115-2.606 1.038-5.061 2.668-7.098l25.761-32.182 18.553 4.203c.127.029.21.152.189.28l-3.503 21.138c-.801 4.842.636 9.698 3.943 13.322l11.294 12.378c1.48 1.622 3.507 2.445 5.542 2.445 1.805 0 3.615-.647 5.053-1.959 3.06-2.792 3.277-7.536.485-10.596l-11.294-12.379c-.188-.207-.271-.484-.225-.76l3.503-21.138c1.317-7.954-3.81-15.581-11.673-17.361l-40.771-9.236 57.531-46.581c2.426.819 5.11.902 7.72.097l12.426-3.834 25.054 34.575c2.624 3.621 6.898 5.539 11.308 5.13l12.646 125.643c.389 3.866 3.649 6.75 7.454 6.75.251 0 .505-.013.76-.038 4.122-.415 7.126-4.092 6.711-8.213l-1.959-19.46h36.517l-1.959 19.46c-.415 4.121 2.59 7.798 6.711 8.213.255.025.509.038.76.038 3.805 0 7.064-2.883 7.454-6.75l12.641-125.588c4.05.057 7.887-1.836 10.314-5.185l25.054-34.575 12.427 3.835c2.859.881 5.81.704 8.41-.348l57.84 46.832-40.771 9.236c-7.863 1.782-12.99 9.408-11.672 17.362l3.502 21.137c.046.277-.036.554-.225.761l-55.407 60.727c-2.792 3.06-2.574 7.804.485 10.596 1.438 1.312 3.249 1.959 5.053 1.959 2.035 0 4.063-.823 5.542-2.445l55.407-60.727c3.308-3.625 4.745-8.48 3.943-13.323l-3.502-21.137c-.021-.129.062-.252.189-.281l18.553-4.203 25.762 32.183c1.63 2.036 2.553 4.491 2.668 7.097l2.459 55.667c.178 4.025 3.497 7.169 7.487 7.169.112 0 .224-.002.337-.007 4.138-.183 7.344-3.686 7.162-7.824l-2.459-55.667c-.256-5.806-2.312-11.273-5.944-15.81l-21.207-26.493 11.184-2.533c4.671-1.058 8.249-4.613 9.335-9.279 1.087-4.665-.551-9.435-4.273-12.449l-61.768-50.012 19.345-33.457 14.456-11.168c4.266-3.296 5.95-8.934 4.189-14.029l-12.613-36.508c3.952-6.756 6.197-14.583 6.197-22.849 0-6.487-2.625-12.372-6.866-16.652v-22.393c16.819-4.033 32.103-12.528 44.446-24.787zm-73.783 57.655c.144-.831.257-1.663.373-2.494h12.158c4.782 0 8.673 3.891 8.673 8.673 0 14.546-10.371 27.081-24.66 29.803l-2.897.552zm12.531-17.494h-11.577c-.394-6.164-1.573-12.237-3.487-18.099l1.84.821c4.795 2.139 9.876 3.359 15.031 3.633v13.721c-.598-.046-1.199-.076-1.807-.076zm-308.405-89.298 39.651 8.573c14.683 3.175 30.194-1.655 40.479-12.604l55.426-59.005c14.335-15.261 33.76-23.665 54.698-23.665s40.362 8.404 54.697 23.665l55.426 59.005c10.286 10.95 25.799 15.78 40.479 12.604l39.651-8.573c-3.364 14.622-10.73 27.878-21.42 38.495-11.415 11.336-25.811 18.861-41.634 21.762-5.482 1.005-11.07.335-16.16-1.935l-37.259-16.629c-3.781-1.688-8.217.01-9.905 3.792-1.688 3.783.009 8.217 3.792 9.905l14.425 6.438c8.211 12.561 11.325 27.586 8.75 42.394l-11.121 63.946h-1.695c-2.62 0-5.083-1.02-6.935-2.873l-14.592-14.592c-8.651-8.651-19.753-13.953-31.737-15.283v-4.66c0-4.142-3.358-7.5-7.5-7.5s-7.5 3.358-7.5 7.5v4.702c0 5.382-4.379 9.761-9.761 9.761s-9.761-4.379-9.761-9.761v-4.702c0-4.142-3.358-7.5-7.5-7.5s-7.5 3.358-7.5 7.5v4.702c0 .009.001.017.001.026-11.775 1.43-22.67 6.698-31.189 15.216l-14.592 14.592c-1.853 1.853-4.315 2.873-6.936 2.873h-1.244l-3.398-19.537 21.555-32.532c4.852 3.183 10.647 5.042 16.872 5.042 17.01 0 30.848-13.838 30.848-30.848v-7.528c0-8.283-6.739-15.022-15.022-15.022h-.765l13.577-20.777 3.839 2.131c7.022 3.897 15.408 3.898 22.431 0l12.984-7.208c3.688-2.046 8.188-2.243 12.039-.524l2.083.93c3.784 1.689 8.217-.009 9.906-3.791 1.688-3.783-.009-8.218-3.791-9.906l-2.083-.93c-8.136-3.631-17.644-3.217-25.433 1.107l-12.984 7.208c-2.464 1.368-5.406 1.368-7.87 0l-12.984-7.208c-7.789-4.324-17.296-4.738-25.433-1.107l-68.687 30.655c-5.09 2.271-10.678 2.941-16.16 1.936-15.823-2.901-30.22-10.426-41.634-21.762-10.694-10.62-18.06-23.877-21.424-38.498zm70.296 75.649c5.155-.275 10.236-1.49 15.032-3.63l3.065-1.368c-2.007 6.027-3.231 12.302-3.656 18.647h-11.634c-.95 0-1.886.063-2.807.172zm60.417 14.643.022-7.55 31.674.022v7.528c0 8.739-7.109 15.848-15.848 15.848s-15.848-7.109-15.848-15.848zm.023-22.55c-8.283 0-15.022 6.739-15.022 15.022v7.528c0 5.185 1.292 10.073 3.562 14.366l-14.881 22.46-3.982-22.897c-2.595-14.918.757-30.483 9.18-43.032l44.423-19.826c2.392-1.069 5.036-1.395 7.58-1l-17.89 27.378h-12.97zm-66.306 45.228c0-4.782 3.891-8.673 8.673-8.673h12.162c.115.832.224 1.665.368 2.494l6.354 36.534-2.897-.552c-14.289-2.722-24.66-15.256-24.66-29.803zm149.814 218.389h-46.981l-5.392-53.57 20.261 17.201c2.353 1.998 5.237 2.997 8.122 2.997s5.769-.999 8.122-2.997l21.354-18.129zm-43.259 36.984-2.213-21.984h43.962l-2.213 21.984zm139.308-182.392c-1.296 1.002-2.37 2.23-3.189 3.647l-22.136 38.284-12.237-3.776c-5.136-1.583-10.707.275-13.86 4.628l-25.203 34.781-12.392-1.936c-3.605-.563-7.272.469-10.058 2.832l-20.963 17.797-20.965-17.799c-2.784-2.362-6.449-3.395-10.057-2.831l-12.392 1.936-25.204-34.781c-3.154-4.353-8.725-6.214-13.861-4.627l-12.236 3.776-22.136-38.284c-.819-1.417-1.893-2.645-3.191-3.649l-13.445-10.387 9.462-27.386c5.666 4.603 12.49 7.891 20.054 9.333l8.451 1.611 1.623 9.333c-2.04.574-3.78 1.995-4.727 3.962-1.25 2.596-.902 5.679.894 7.931l8.474 10.623c9.146 11.464 22.788 18.718 37.427 19.903.206.017.41.025.613.025 3.868 0 7.15-2.973 7.467-6.896.334-4.129-2.742-7.747-6.871-8.081-10.018-.811-19.045-5.328-25.63-12.781 6.166-.298 11.919-2.841 16.314-7.236l14.592-14.592c6.837-6.837 15.802-10.77 25.402-11.191 4.512 6.122 11.769 10.104 19.941 10.104 8.177 0 15.439-3.987 19.95-10.117 9.802.294 18.977 4.239 25.942 11.204l14.591 14.591c4.381 4.382 10.113 6.923 16.257 7.234-13.206 14.358-35.085 16.602-51.014 4.811l-15.133-11.201c-5.527-4.092-13.001-4.155-18.596-.157l-16.791 11.997c-3.371 2.408-4.15 7.092-1.743 10.462 2.408 3.371 7.093 4.15 10.462 1.743l16.791-11.997c.286-.205.668-.202.952.008l15.134 11.202c9.593 7.101 20.733 10.542 31.779 10.542 15.662-.001 31.129-6.925 41.683-20.154l8.013-10.045c1.797-2.252 2.145-5.335.895-7.931-.88-1.828-2.448-3.171-4.302-3.815l1.649-9.48 8.451-1.611c7.218-1.375 13.763-4.431 19.27-8.707l9.246 26.76z" fill="#F3C65D" data-original="#000000"></path><path d="m215.089 111.907c1.167 2.942 3.989 4.735 6.973 4.735.921 0 1.857-.171 2.765-.531l31.825-12.633 31.825 12.633c.908.361 1.844.531 2.765.531 2.983 0 5.805-1.793 6.973-4.735 1.528-3.85-.354-8.21-4.204-9.738l-17.031-6.76 17.031-6.76c3.85-1.528 5.732-5.888 4.204-9.738-1.528-3.851-5.891-5.733-9.738-4.204l-31.825 12.633-31.825-12.633c-3.85-1.53-8.21.354-9.738 4.204s.354 8.21 4.204 9.738l17.031 6.76-17.031 6.76c-3.85 1.528-5.732 5.888-4.204 9.738z" fill="#F3C65D" data-original="#000000"></path><path d="m258.378 73.05c12.91 0 23.414-10.503 23.414-23.414s-10.503-23.414-23.414-23.414-23.414 10.503-23.414 23.414 10.504 23.414 23.414 23.414zm0-31.827c4.639 0 8.414 3.774 8.414 8.414s-3.774 8.414-8.414 8.414-8.414-3.774-8.414-8.414 3.775-8.414 8.414-8.414z" fill="#F3C65D" data-original="#000000"></path><path d="m300.053 185.892v12.607c0 4.142 3.358 7.5 7.5 7.5s7.5-3.358 7.5-7.5v-12.607c0-4.142-3.358-7.5-7.5-7.5s-7.5 3.358-7.5 7.5z" fill="#F3C65D" data-original="#000000"></path><path d="m180.993 475.487c-2.792-3.06-7.536-3.277-10.596-.485s-3.277 7.536-.485 10.596l22.548 24.713c1.48 1.622 3.507 2.445 5.542 2.445 1.805 0 3.615-.647 5.053-1.959 3.06-2.792 3.277-7.536.485-10.596z" fill="#F3C65D" data-original="#000000"></path></g></g></svg>