<?xml version="1.0"?>
<svg xmlns="http://www.w3.org/2000/svg" xmlns:xlink="http://www.w3.org/1999/xlink" xmlns:svgjs="http://svgjs.com/svgjs" version="1.1" width="512" height="512" x="0" y="0" viewBox="0 0 512 512.20998" style="enable-background:new 0 0 512 512" xml:space="preserve" class=""><g><path xmlns="http://www.w3.org/2000/svg" d="m378.859375 8.101562c-2.628906-1.0625-5.617187-.75-7.96875.835938-2.355469 1.585938-3.765625 4.238281-3.765625 7.074219v10.589843h-27.792969c-2.863281-9.46875-9.175781-17.523437-17.6875-22.570312-9.226562-5.03125-20.292969-5.371094-29.808593-.914062-9.515626 4.457031-16.339844 13.175781-18.378907 23.484374h-42.863281v-10.589843c0-2.835938-1.410156-5.488281-3.765625-7.074219-2.351563-1.585938-5.339844-1.898438-7.96875-.835938-49.585937 20.019532-89.804687 57.988282-112.640625 106.34375-79.328125 46.125-120.273438 137.8125-101.671875 227.667969 18.601563 89.859375 92.582031 157.753907 183.703125 168.59375 91.121094 10.84375 178.964844-37.804687 218.128906-120.789062 70.289063-40.953125 111.140625-118.347657 105.289063-199.488281-5.847657-81.140626-57.371094-151.875-132.808594-182.328126zm-106.898437 35.566407c.195312 3.578125.714843 7.125 1.554687 10.609375 1.164063 4.542968 5.773437 7.296875 10.324219 6.167968 4.550781-1.132812 7.335937-5.722656 6.238281-10.28125-.484375-2.140624-.816406-4.308593-.996094-6.496093h9.777344c4.714844 0 8.535156-3.820313 8.535156-8.53125 0-4.714844-3.820312-8.535157-8.535156-8.535157h-7.421875c1.914062-4.253906 5.542969-7.5 9.980469-8.933593 4.089843-1.039063 8.414062-.535157 12.152343 1.417969 6 4.289062 10.003907 10.828124 11.09375 18.125.953126 3.796874 4.363282 6.457031 8.277344 6.457031h34.132813v9.71875c0 3.21875 1.808593 6.160156 4.675781 7.613281 43.324219 21.710938 74.613281 61.71875 85.25 108.992188 10.636719 47.277343-.503906 96.828124-30.355469 135 .0625-2.089844.164063-4.171876.164063-6.269532.269531-86.980468-52.550782-165.324218-133.28125-197.691406-2.632813-1.066406-5.617188-.753906-7.972656.835938-2.351563 1.585937-3.761719 4.234374-3.761719 7.074218v10.582032h-27.792969c-2.863281-9.472657-9.175781-17.527344-17.691406-22.570313-9.222656-5.042969-20.292969-5.386719-29.8125-.929687-9.515625 4.460937-16.339844 13.1875-18.375 23.5h-26.402344c15.75-24.921876 37.925781-45.132813 64.191406-58.515626 2.871094-1.453124 4.683594-4.398437 4.683594-7.621093v-9.71875zm26.898437 375.460937c8.164063-.007812 16.320313-.484375 24.429687-1.425781-62.003906 57.277344-157.605468 57.34375-219.6875.144531-62.082031-57.199218-69.835937-152.484375-17.820312-218.964844-.074219 2.304688-.253906 4.582032-.253906 6.894532.121094 117.773437 95.558594 213.21875 213.332031 213.351562zm43.195313-21.964844c-14.167969 3.25-28.65625 4.894532-43.195313 4.898438-108.34375-.125-196.144531-87.925781-196.265625-196.269531.019531-9.046875.65625-18.085938 1.902344-27.050781 6.359375-5.726563 13.160156-10.949219 20.335937-15.613282-15.558593 63.503906 4.703125 130.445313 52.863281 174.667969 48.160157 44.222656 116.582032 58.714844 178.535157 37.808594-4.148438 7.550781-8.886719 14.757812-14.175781 21.558593zm23.894531-43.792968c-21.050781 9.632812-43.9375 14.597656-67.089844 14.554687-55.558594.0625-107.273437-28.359375-137-75.296875s-33.320313-105.839844-9.515625-156.039062h34.285156c.195313 3.574218.714844 7.125 1.554688 10.605468 1.136718 4.574219 5.765625 7.359376 10.339844 6.222657 4.574218-1.140625 7.359374-5.769531 6.222656-10.34375-.484375-2.136719-.820313-4.304688-1-6.484375h9.78125c4.710937 0 8.53125-3.820313 8.53125-8.535156 0-4.710938-3.820313-8.53125-8.53125-8.53125h-7.425782c1.917969-4.257813 5.542969-7.503907 9.984376-8.9375 4.085937-1.042969 8.414062-.539063 12.152343 1.417968 6 4.289063 10.003907 10.828125 11.09375 18.125.953125 3.816406 4.394531 6.484375 8.328125 6.460938h34.132813v9.726562c0 3.214844 1.808593 6.160156 4.675781 7.613282 73.261719 36.664062 107.441406 122.390624 79.503906 199.40625zm-152.421875-324.25v19.113281c-28.144532 15.402344-51.703125 37.992187-68.265625 65.46875v-4.761719c-.003907-2.839844-1.414063-5.488281-3.765625-7.074218-2.351563-1.589844-5.339844-1.902344-7.96875-.835938-.214844.085938-.417969.1875-.632813.28125 19.535157-31.183594 47.488281-56.207031 80.632813-72.191406zm0 465.867187c-91.488282-.050781-170.808594-63.308593-191.210938-152.492187-20.40625-89.183594 23.511719-180.636719 105.875-220.464844v19.132812c-63.984375 34.558594-100.726562 104.375-92.984375 176.683594 7.746094 72.3125 58.4375 132.765625 128.292969 152.992188 69.855469 20.226562 145.003906-3.789063 190.1875-60.773438.335938-.375.640625-.78125.902344-1.214844 10.789062-13.785156 19.496094-29.078124 25.847656-45.386718.359375-.679688.625-1.402344.785156-2.152344 31.589844-83.652344-3.625-177.769531-82.363281-220.148438v-19.132812c82.363281 39.828125 126.285156 131.28125 105.878906 220.464844s-99.722656 152.441406-191.210937 152.492187zm203.671875-132.734375c2.886719-9.300781 5.132812-18.792968 6.714843-28.398437 40.8125-39.707031 60.285157-96.46875 52.441407-152.867188-7.839844-56.398437-42.066407-105.691406-92.164063-132.753906v-19.164063c61.570313 29.6875 103.242188 89.292969 109.980469 157.3125 6.738281 68.019532-22.425781 134.644532-76.972656 175.835938zm0 0" fill="#F3C65D" data-original="#000000"/></g></svg>
