<?xml version="1.0"?>
<svg xmlns="http://www.w3.org/2000/svg" xmlns:xlink="http://www.w3.org/1999/xlink" xmlns:svgjs="http://svgjs.com/svgjs" version="1.1" width="512" height="512" x="0" y="0" viewBox="0 0 511.99993 511" style="enable-background:new 0 0 512 512" xml:space="preserve" class=""><g><path xmlns="http://www.w3.org/2000/svg" d="m447.640625 111.578125c.007813-.011719 59.425781-74.523437 59.425781-74.523437 7.167969-8.960938 6.449219-21.839844-1.664062-29.957032-8.121094-8.117187-20.996094-8.832031-29.957032-1.660156-.097656.082031-.199218.160156-.300781.242188l-74.179687 59.148437c-.023438.015625-.042969.035156-.066406.050781l-30.082032 23.984375-5.859375-5.855469c-.015625-.019531-21.21875-21.222656-21.21875-21.222656-1.40625-1.40625-3.3125-2.195312-5.304687-2.195312-1.988282 0-3.894532.789062-5.304688 2.195312l-42.421875 42.425782c-2.929687 2.925781-2.929687 7.675781 0 10.601562l5.761719 5.761719-10.910156 10.910156c-11.890625-9.515625-26.585938-14.695313-42.121094-14.695313-18.074219 0-35.023438 6.992188-47.726562 19.695313l-184.746094 184.75c-14.621094 14.621094-14.621094 38.410156 0 53.027344l127.269531 127.273437c7.0625 7.058594 16.476563 10.945313 26.515625 10.945313s19.457031-3.886719 26.515625-10.945313l184.75-184.75c24.679687-24.679687 26.214844-63.878906 4.597656-90.363281l10.851563-10.847656 5.304687 5.300781c1.464844 1.464844 3.382813 2.195312 5.300781 2.195312 1.921876 0 3.839844-.730468 5.304688-2.195312l42.425781-42.421875c1.40625-1.40625 2.195313-3.316406 2.195313-5.304687 0-1.988282-.789063-3.894532-2.195313-5.300782l-21.207031-21.207031c-.011719-.011719-4.957031-4.957031-4.957031-4.957031zm-77.386719 61.570313 31.816406-31.816407 10.609376 10.605469-31.820313 31.816406zm-42.425781-42.425782 31.820313-31.816406 10.605468 10.605469-31.820312 31.820312zm53.03125-10.605468 10.605469 10.605468-31.820313 31.820313-10.605469-10.605469zm103.914063-102.933594c.015624-.011719.03125-.023438.046874-.039063 2.980469-2.386719 7.269532-2.144531 9.976563.558594 2.703125 2.707031 2.945313 6.996094.550781 9.992187l-54.15625 67.910157-24.296875-24.300781c30.636719-24.429688 66.980469-53.40625 67.878907-54.121094zm-79.679688 63.53125 26.6875 26.691406-18.820312 23.601562-5.585938-5.585937c-.003906-.003906-21.210938-21.210937-21.210938-21.210937-.003906-.003907-4.671874-4.671876-4.671874-4.671876 5.453124-4.347656 13.863281-11.058593 23.601562-18.824218zm-66.660156-3.019532 10.605468 10.605469-31.816406 31.816407-4.839844-4.839844c-.007812-.007813-5.765624-5.765625-5.765624-5.765625zm26.972656 228.484376-184.746094 184.75c-4.226562 4.226562-9.875 6.550781-15.910156 6.550781-6.03125 0-11.683594-2.324219-15.90625-6.550781l-127.273438-127.273438c-8.769531-8.769531-8.769531-23.042969 0-31.816406l184.75-184.75c9.867188-9.867188 23.050782-15.300782 37.117188-15.300782 14.070312 0 27.253906 5.433594 37.121094 15.300782l84.847656 84.847656c20.46875 20.46875 20.46875 53.773438 0 74.242188zm4.847656-90.609376-73.785156-73.78125 10.605469-10.605468 26.054687 26.050781c.007813.007813 47.730469 47.730469 47.730469 47.730469zm31.816406-10.605468-5.296874-5.296875c-.007813-.007813-5.308594-5.308594-5.308594-5.308594l31.820312-31.816406 10.605469 10.605469zm0 0" fill="#F3C65D" data-original="#000000" class=""/><path xmlns="http://www.w3.org/2000/svg" d="m216.925781 168.304688c-2.929687-2.929688-7.675781-2.929688-10.605469 0l-60.558593 60.554687c-2.929688 2.929687-2.929688 7.675781 0 10.605469 2.929687 2.929687 7.675781 2.929687 10.605469 0l55.253906-55.253906 116.667968 116.667968-131.71875 131.71875-116.667968-116.667968 55.253906-55.253907c2.929688-2.925781 2.929688-7.675781 0-10.605469-2.929688-2.925781-7.675781-2.925781-10.605469 0l-60.558593 60.558594c-2.925782 2.929688-2.925782 7.675782 0 10.605469l127.273437 127.269531c1.40625 1.410156 3.3125 2.199219 5.304687 2.199219 1.988282 0 3.894532-.789063 5.300782-2.199219l142.324218-142.324218c2.929688-2.925782 2.929688-7.675782 0-10.605469zm0 0" fill="#F3C65D" data-original="#000000" class=""/></g></svg>
