<?xml version="1.0"?>
<svg xmlns="http://www.w3.org/2000/svg" xmlns:xlink="http://www.w3.org/1999/xlink" xmlns:svgjs="http://svgjs.com/svgjs" version="1.1" width="512" height="512" x="0" y="0" viewBox="0 0 512.001 512.001" style="enable-background:new 0 0 512 512" xml:space="preserve" class=""><g>
<g xmlns="http://www.w3.org/2000/svg">
	<g>
		<path d="M256.061,0.01C256.05,0,256.05,0,256.041,0c-5.557,0-10.068,4.52-10.068,10.068s4.51,10.068,10.068,10.068    c5.547,0,10.068-4.509,10.068-10.068C266.109,4.53,261.599,0.01,256.061,0.01z" fill="#F3C65D" data-original="#000000"/>
	</g>
</g>
<g xmlns="http://www.w3.org/2000/svg">
	<g>
		<path d="M477.762,265.419c0-10.986-5.904-20.609-14.698-25.894c2.231-14.601,3.38-29.356,3.381-44.16    c0-0.004,0.001-0.008,0.001-0.012c0.02-24.827-4.309-48.627-12.867-70.736c-8.225-21.273-20.206-40.603-35.599-57.466    c-15.051-16.501-33.062-30.354-53.54-41.187c-20.427-10.813-42.848-18.363-66.628-22.441c-0.564-0.101-1.138-0.151-1.712-0.151    c-4.913,0-9.081,3.514-9.907,8.367c-0.463,2.648,0.141,5.316,1.701,7.51c1.55,2.195,3.866,3.665,6.514,4.118    c43.734,7.51,81.317,27.344,108.691,57.356c28.239,31.018,43.178,70.651,43.211,114.624c0,0.003,0,0.005,0,0.008    c0,13.993-1.065,27.386-2.954,40.161c-14.671,2.052-25.999,14.678-25.999,29.905c0,4.004,0.787,7.826,2.21,11.325    c-10.751,5.367-18.156,16.472-18.156,29.283c0,2.749,0.35,5.417,0.993,7.97c-16.664,3.919-29.111,18.9-29.111,36.744    c0,2.032,0.171,4.022,0.483,5.966c-20.706,1.226-37.243,18.166-37.837,39.034c-2.846-0.563-5.782-0.874-8.79-0.874    c-17.816,0-33.255,10.341-40.651,25.33c-1.847-2.863-5.013-4.623-8.444-4.623h-44.046c-3.45,0-6.635,1.779-8.477,4.672    c-7.386-15.018-22.842-25.38-40.676-25.38c-3.008,0-5.945,0.302-8.789,0.867c-0.597-20.864-17.132-37.801-37.835-39.028    c0.31-1.944,0.481-3.934,0.481-5.965c0-17.841-12.444-32.821-29.105-36.743c0.642-2.552,0.987-5.222,0.987-7.971    c0-12.812-7.406-23.921-18.158-29.289c1.421-3.499,2.211-7.317,2.211-11.319c0-15.204-11.295-27.815-25.934-29.896    c-1.891-12.778-2.961-26.172-2.961-40.17c0-0.002,0-0.015,0-0.02c0.03-43.977,14.981-83.613,43.221-114.622    c27.374-30.012,64.957-49.845,108.701-57.356c2.648-0.453,4.963-1.913,6.514-4.108c1.55-2.195,2.155-4.863,1.701-7.51    c-0.836-4.853-5.004-8.367-9.907-8.367c-0.574,0-1.148,0.051-1.722,0.142c-23.78,4.077-46.191,11.628-66.628,22.441    c-20.468,10.833-38.479,24.686-53.54,41.187c-15.393,16.852-27.374,36.192-35.609,57.455    c-8.547,22.109-12.887,45.91-12.867,70.737c0,0.002,0,0.015,0,0.02c0,14.793,1.149,29.537,3.376,44.128    c-8.826,5.277-14.752,14.927-14.752,25.938c0,10.9,5.806,20.47,14.486,25.781c-2.277,4.454-3.574,9.49-3.574,14.827    c0,13.856,8.66,25.719,20.849,30.479c-1.798,4.396-2.8,9.199-2.8,14.235c0,19.31,14.574,35.269,33.299,37.482    c-0.617,2.796-0.949,5.697-0.949,8.676c0,22.205,18.065,40.271,40.271,40.271c1.301,0,2.581-0.083,3.85-0.204    c-0.075,1.06-0.124,2.128-0.124,3.208c0,24.981,20.324,45.305,45.305,45.305c8.824,0,17.056-2.55,24.025-6.935l16.41,28.423    c1.798,3.115,5.121,5.034,8.719,5.034h44.046c3.597,0,6.921-1.919,8.719-5.034l16.393-28.394    c6.961,4.366,15.177,6.904,23.983,6.904c24.981,0,45.305-20.324,45.305-45.305c0-1.081-0.052-2.149-0.128-3.212    c1.271,0.124,2.552,0.209,3.854,0.209c22.205,0,40.271-18.065,40.271-40.271c0-2.98-0.343-5.879-0.962-8.674    c18.731-2.207,33.311-18.17,33.311-37.484c0-5.038-1.012-9.838-2.812-14.235c12.195-4.759,20.862-16.619,20.862-30.479    c0-5.339-1.308-10.371-3.587-14.826C471.949,285.892,477.762,276.325,477.762,265.419z M54.376,265.419    c0-5.551,4.516-10.068,10.068-10.068s10.068,4.516,10.068,10.068s-4.516,10.068-10.068,10.068    C58.892,275.487,54.376,270.97,54.376,265.419z M65.288,306.027c0-6.94,5.645-12.585,12.585-12.585    c6.94,0,12.585,5.645,12.585,12.585c0,6.94-5.645,12.585-12.585,12.585C70.933,318.612,65.288,312.966,65.288,306.027z     M100.957,368.359c-9.714,0-17.618-7.904-17.618-17.618s7.904-17.618,17.618-17.618s17.618,7.904,17.618,17.618    S110.671,368.359,100.957,368.359z M135.822,417.034c-11.103,0-20.135-9.033-20.135-20.135c0-11.103,9.033-20.135,20.135-20.135    c11.103,0,20.135,9.033,20.135,20.135C155.957,408.001,146.925,417.034,135.822,417.034z M184.854,465.341    c-13.878,0-25.169-11.291-25.169-25.169s11.291-25.169,25.169-25.169c13.878,0,25.169,11.291,25.169,25.169    S198.732,465.341,184.854,465.341z M272.24,491.865h-32.421l-16.21-28.078l16.21-28.077h32.421l16.211,28.077L272.24,491.865z     M327.148,465.341c-13.878,0-25.169-11.291-25.169-25.169s11.291-25.169,25.169-25.169s25.169,11.291,25.169,25.169    S341.027,465.341,327.148,465.341z M376.179,417.034c-11.103,0-20.135-9.033-20.135-20.135c0-11.103,9.033-20.135,20.135-20.135    c11.103,0,20.135,9.033,20.135,20.135C396.314,408.001,387.282,417.034,376.179,417.034z M411.045,368.359    c-9.714,0-17.618-7.904-17.618-17.618s7.904-17.618,17.618-17.618s17.618,7.904,17.618,17.618S420.76,368.359,411.045,368.359z     M434.129,318.612c-6.94,0-12.585-5.645-12.585-12.585c0-6.94,5.645-12.585,12.585-12.585c6.94,0,12.585,5.645,12.585,12.585    C446.714,312.967,441.068,318.612,434.129,318.612z M447.559,275.487c-5.551,0-10.068-4.516-10.068-10.068    s4.516-10.068,10.068-10.068c5.551,0,10.068,4.516,10.068,10.068S453.11,275.487,447.559,275.487z" fill="#F3C65D" data-original="#000000"/>
	</g>
</g>
<g xmlns="http://www.w3.org/2000/svg">
</g>
<g xmlns="http://www.w3.org/2000/svg">
</g>
<g xmlns="http://www.w3.org/2000/svg">
</g>
<g xmlns="http://www.w3.org/2000/svg">
</g>
<g xmlns="http://www.w3.org/2000/svg">
</g>
<g xmlns="http://www.w3.org/2000/svg">
</g>
<g xmlns="http://www.w3.org/2000/svg">
</g>
<g xmlns="http://www.w3.org/2000/svg">
</g>
<g xmlns="http://www.w3.org/2000/svg">
</g>
<g xmlns="http://www.w3.org/2000/svg">
</g>
<g xmlns="http://www.w3.org/2000/svg">
</g>
<g xmlns="http://www.w3.org/2000/svg">
</g>
<g xmlns="http://www.w3.org/2000/svg">
</g>
<g xmlns="http://www.w3.org/2000/svg">
</g>
<g xmlns="http://www.w3.org/2000/svg">
</g>
</g></svg>
