<?xml version="1.0"?>
<svg xmlns="http://www.w3.org/2000/svg" xmlns:xlink="http://www.w3.org/1999/xlink" xmlns:svgjs="http://svgjs.com/svgjs" version="1.1" width="512" height="512" x="0" y="0" viewBox="0 0 430.185 430.185" style="enable-background:new 0 0 512 512" xml:space="preserve" class=""><g>
<g xmlns="http://www.w3.org/2000/svg">
	<path d="M429.846,188.37c-0.64-2.699-2.019-5.41-4.146-7.539c-8.805-8.803-98.09-86.385-140.16-86.385   c-22.899,0-38.6,11.566-51.215,20.859c-7.578,5.584-14.123,10.404-19.111,10.41c-5.012-0.006-11.555-4.826-19.137-10.414   c-12.615-9.293-28.314-20.855-51.213-20.855c-42.074,0-131.354,77.582-140.156,86.385c-2.303,2.305-3.803,5.174-4.365,8.236   l-0.332,3.803c-0.17,4.207,1.473,8.295,4.697,11.521c4.271,4.271,9.703,11.002,15.998,18.807   c16.01,19.844,37.932,47.018,68.982,69.521c39.389,28.547,81.391,43.021,124.842,43.021c43.426,0,85.992-15.112,126.514-44.92   c31.688-23.306,54.463-51.517,69.533-70.185c5.555-6.882,17.56-21.485,18.48-23.302   C429.906,195.666,430.637,191.713,429.846,188.37z M329.196,274.709c-37.016,27.228-75.594,41.031-114.664,41.031   c-39.146,0-77.201-13.195-113.107-39.215c-28.889-20.941-71.255-68.052-68.848-70.459c0.809-0.809,18.959,8.18,28.246,12.521   c37.141,17.365,93.27,43.604,153.709,43.604c62.082,0,118.996-26.883,156.658-44.674c9.084-4.291,25.26-12.682,25.481-11.496   C397.062,208.099,358.797,252.938,329.196,274.709z M82.864,206.772c0-1.934,104.781-10.9,127.447-11.025   c3.211-0.016,6.426-0.025,9.643-0.025c24.42,0,128.012,8.117,128.012,10.594c0,3.44-83.194,35.879-133.434,35.879   C165.266,242.193,82.864,211.088,82.864,206.772z M390.975,187.629c-11.229,0-25.984-0.73-43.072-1.33   c-14.564-0.512-31.887-2.496-50.228-4.6c-25.643-2.938-52.158-5.979-77.723-5.979c-3.254,0-6.504,0.01-9.752,0.025   c-23.775,0.131-49.994,3.188-75.35,6.145c-18.916,2.205-36.783,4.289-51.422,4.844c-9.617,0.363-16.451,0.717-21.943,1   c-7.527,0.391-12.964,0.783-21.049,0.783c-8.655,0-13.126-1.032-10.321-3.43c12.434-10.631,24.421-20.693,45.155-35.4   c31.572-22.398,56.938-35.242,69.594-35.242c16.328,0,28.033,8.621,39.354,16.961c9.979,7.352,19.402,14.295,30.996,14.309   c11.572-0.014,20.996-6.957,30.975-14.309c11.317-8.34,23.022-16.961,39.352-16.961c12.658,0,38.023,12.844,69.597,35.242   c20.092,14.252,35.015,24.77,45.979,35.733C403.377,187.682,399.283,187.629,390.975,187.629z" fill="#F3C65D" data-original="#000000" style=""/>
</g>
<g xmlns="http://www.w3.org/2000/svg">
</g>
<g xmlns="http://www.w3.org/2000/svg">
</g>
<g xmlns="http://www.w3.org/2000/svg">
</g>
<g xmlns="http://www.w3.org/2000/svg">
</g>
<g xmlns="http://www.w3.org/2000/svg">
</g>
<g xmlns="http://www.w3.org/2000/svg">
</g>
<g xmlns="http://www.w3.org/2000/svg">
</g>
<g xmlns="http://www.w3.org/2000/svg">
</g>
<g xmlns="http://www.w3.org/2000/svg">
</g>
<g xmlns="http://www.w3.org/2000/svg">
</g>
<g xmlns="http://www.w3.org/2000/svg">
</g>
<g xmlns="http://www.w3.org/2000/svg">
</g>
<g xmlns="http://www.w3.org/2000/svg">
</g>
<g xmlns="http://www.w3.org/2000/svg">
</g>
<g xmlns="http://www.w3.org/2000/svg">
</g>
</g></svg>
