<?xml version="1.0"?>
<svg xmlns="http://www.w3.org/2000/svg" xmlns:xlink="http://www.w3.org/1999/xlink" xmlns:svgjs="http://svgjs.com/svgjs" version="1.1" width="512" height="512" x="0" y="0" viewBox="0 0 512 512" style="enable-background:new 0 0 512 512" xml:space="preserve" class=""><g><g xmlns="http://www.w3.org/2000/svg"><path d="m375.983 306.795c.419-68.65-8.12-147.982-31.648-212.463-15.244-41.779-43.71-94.332-88.337-94.332-44.62 0-73.087 52.537-88.337 94.333-23.413 64.165-32.068 143.229-31.648 212.492-50.668 15.136-83.828 65.804-72.939 121.295 8.065 41.104 41.138 74.019 82.298 81.903 23.015 4.409 46.369 1.3 66.834-8.726 22.372 14.315 65.661 14.317 88.053-.278 10.173 5.291 20.884 8.682 31.969 10.099 63.698 8.144 118.77-41.276 118.77-104.118 0-46.909-30.86-87.192-75.015-100.205zm-39.951 174.566c-4.787-.612-9.494-1.791-14.097-3.496 11.604-14.145 25.99-23.034 41.25-25.282 8.196-1.208 13.861-8.83 12.653-17.026s-8.827-13.861-17.026-12.654c-26.305 3.875-50.246 20.145-67.41 45.811-11.825 17.682-58.791 17.607-70.728.094-17.537-25.726-41.496-42.025-67.465-45.894-8.198-1.223-15.826 4.432-17.047 12.626s4.432 15.826 12.626 17.047c15.048 2.242 29.449 11.184 41.293 25.434-12.347 4.161-25.766 5.085-39.064 2.537-28.804-5.518-52.861-29.457-58.504-58.215-8.547-43.563 20.481-82.102 61.126-88.87 7.353-1.224 12.691-7.662 12.533-15.115-1.46-68.632 6.181-149.365 29.672-213.743 17.047-46.721 39.535-74.615 60.154-74.615s43.106 27.894 60.155 74.616c23.518 64.451 31.129 145.228 29.672 213.743-.158 7.452 5.18 13.89 12.533 15.115 36.296 6.043 62.641 36.966 62.641 73.526-.001 43.881-38.22 80.334-84.967 74.361z" fill="#F3C65D" data-original="#000000" style="" class=""/></g></g></svg>
