<svg xmlns="http://www.w3.org/2000/svg" version="1.1" xmlns:xlink="http://www.w3.org/1999/xlink" xmlns:svgjs="http://svgjs.com/svgjs" width="512" height="512" x="0" y="0" viewBox="0 0 64 64" style="enable-background:new 0 0 512 512" xml:space="preserve" class=""><g><path d="M61.788 12.143a1 1 0 0 0-1.078-1.574c-7.021 2.125-9.543-.717-12.212-3.728-1.655-1.867-3.367-3.798-6.107-4.483C36.821.966 33.475 3.957 32 5.815 30.526 3.957 27.18.968 21.609 2.358c-2.74.685-4.452 2.616-6.107 4.483-2.67 3.01-5.19 5.853-12.212 3.728a1 1 0 0 0-1.078 1.574c.326.416 7.895 9.947 17.287 10.6 1.998 4.208 6.94 7.006 12.501 7.006 3.694 0 7.135-1.201 9.688-3.383a1 1 0 1 0-1.298-1.52c-2.16 1.845-5.218 2.903-8.39 2.903-4.406 0-8.337-1.976-10.242-5.028 3.724-.338 7.158-2.178 10.242-5.5 3.428 3.693 7.29 5.561 11.498 5.561 5.533.011 10.61-3.276 13.963-6.195.512 2.675 1.21 8.215-.904 11.657l-1.778-2.208a1.001 1.001 0 0 0-1.733.926c.028.09 2.534 8.357-2.063 14.419l-.374-1.66a1 1 0 0 0-1.974.167c-.008.156-1.007 15.61-16.635 20.073-15.59-4.446-16.6-19.435-16.635-20.075a1.001 1.001 0 0 0-.916-.942 1.007 1.007 0 0 0-1.058.777l-.373 1.659c-4.58-6.049-2.091-14.33-2.063-14.42a1 1 0 0 0-1.734-.924l-1.778 2.208c-1.535-2.5-1.585-6.105-1.317-8.847a1 1 0 0 0-.898-1.092.99.99 0 0 0-1.092.898c-.343 3.518-.182 8.341 2.54 11.34.196.217.477.35.77.328.366-.002.67-.232.87-.524-.34 3.786.082 9.523 4.55 13.874.346.347.933.377 1.313.073 1.507 5.423 5.752 14.428 17.556 17.67a.993.993 0 0 0 .53 0c11.804-3.242 16.049-12.247 17.556-17.67.38.305.967.274 1.312-.073 4.47-4.35 4.892-10.088 4.55-13.874.201.292.505.522.872.524.302.025.573-.111.77-.328 4.08-4.496 2.43-13.082 1.847-15.538 1.56-1.533 2.505-2.722 2.616-2.862zm-18.05 8.637c-4.02.067-7.695-1.843-10.975-5.712-.38-.447-1.146-.447-1.526 0-3.279 3.867-6.952 5.792-10.97 5.712-6.044-.115-11.55-4.716-14.413-7.594 5.982.798 8.704-2.267 11.145-5.019 1.52-1.714 2.956-3.334 5.095-3.868 6.235-1.563 8.902 3.529 9.011 3.743a1 1 0 0 0 .892.552h.004c.376 0 .722-.213.892-.549.11-.217 2.78-5.303 9.013-3.746 2.139.534 3.575 2.154 5.095 3.868 2.441 2.753 5.16 5.825 11.148 5.018-2.857 2.878-8.356 7.476-14.41 7.595z" fill="#F3C65D" data-original="#000000"></path></g></svg>