<?xml version="1.0"?>
<svg xmlns="http://www.w3.org/2000/svg" xmlns:xlink="http://www.w3.org/1999/xlink" xmlns:svgjs="http://svgjs.com/svgjs" version="1.1" width="512" height="512" x="0" y="0" viewBox="0 0 512 512" style="enable-background:new 0 0 512 512" xml:space="preserve"><g><g xmlns="http://www.w3.org/2000/svg"><path d="m189.013 208.234c-4.143 0-7.5 3.358-7.5 7.5v22.687c0 4.142 3.357 7.5 7.5 7.5s7.5-3.358 7.5-7.5v-22.687c0-4.143-3.358-7.5-7.5-7.5z" fill="#F3C65D" data-original="#000000"/><path d="m222.506 259.531c4.143 0 7.5-3.358 7.5-7.5v-49.91c0-4.142-3.357-7.5-7.5-7.5s-7.5 3.358-7.5 7.5v49.91c0 4.142 3.357 7.5 7.5 7.5z" fill="#F3C65D" data-original="#000000"/><path d="m255.999 280.307c4.143 0 7.5-3.358 7.5-7.5v-91.462c0-4.142-3.357-7.5-7.5-7.5s-7.5 3.358-7.5 7.5v91.462c0 4.142 3.357 7.5 7.5 7.5z" fill="#F3C65D" data-original="#000000"/><path d="m289.493 259.531c4.143 0 7.5-3.358 7.5-7.5v-49.91c0-4.142-3.357-7.5-7.5-7.5s-7.5 3.358-7.5 7.5v49.91c0 4.142 3.357 7.5 7.5 7.5z" fill="#F3C65D" data-original="#000000"/><path d="m322.987 245.92c4.143 0 7.5-3.358 7.5-7.5v-22.687c0-4.142-3.357-7.5-7.5-7.5s-7.5 3.358-7.5 7.5v22.687c0 4.142 3.358 7.5 7.5 7.5z" fill="#F3C65D" data-original="#000000"/><path d="m406.364 329.262c-1.902-1.252-2.986-3.403-2.83-5.616.466-6.618.986-13.632 1.547-20.845.483-6.217-2.479-12.163-7.73-15.519-5.26-3.361-11.911-3.551-17.359-.496-19.872 11.143-34.915 21.936-46.273 31.63-3.075-1.438-6.186-2.801-9.328-4.079l37.122-28.952c4.358-3.399 6.858-8.519 6.858-14.046v-14.381h16.88c10.328 0 18.73-8.402 18.73-18.73v-24.311c0-10.328-8.402-18.73-18.73-18.73h-16.88v-18.805c0-4.854-2.832-9.339-7.214-11.426l-2.73-1.301c-.626-13.613-4.178-26.476-10.044-37.97 5.415-1.967 10.572-4.519 15.407-7.639 12.959-8.37 24.05-22.878 30.428-39.8 1.223-3.239.589-6.891-1.653-9.531-2.256-2.656-5.78-3.88-9.208-3.19-4.365.881-9.271.806-14.154-.158 7.376-8.907 12.568-19.948 14.895-31.895.686-3.563-.668-7.16-3.531-9.384-2.851-2.214-6.651-2.637-9.916-1.099-12.469 5.865-29.39 4.646-50.292-3.618-4.229-1.671-8.564-3.542-12.757-5.351-15.26-6.583-31.039-13.39-48.452-13.98-17.85-.608-35.209 5.721-47.576 17.391-13.102 12.363-19.996 30.711-17.992 47.89.88 7.496 3.493 14.809 7.522 21.287-27.222 15.369-46.008 43.992-47.528 77.048l-2.731 1.301c-4.382 2.087-7.214 6.573-7.214 11.426v18.805h-16.88c-10.328 0-18.73 8.402-18.73 18.73v24.311c0 10.328 8.402 18.73 18.73 18.73h16.88v14.381c0 5.528 2.5 10.647 6.858 14.046l37.122 28.952c-3.141 1.279-6.253 2.641-9.328 4.079-11.357-9.694-26.401-20.487-46.273-31.63-5.447-3.056-12.102-2.867-17.359.496-5.251 3.356-8.214 9.302-7.73 15.519.561 7.213 1.081 14.227 1.547 20.847.156 2.211-.928 4.363-2.829 5.615-4.139 2.724-8.162 5.697-11.959 8.837-3.191 2.64-3.639 7.367-.999 10.559s7.369 3.639 10.56 1c3.378-2.794 6.959-5.44 10.646-7.866 6.425-4.229 10.082-11.587 9.545-19.199-.469-6.654-.991-13.704-1.555-20.953-.072-.923.424-1.444.853-1.718.436-.276 1.125-.512 1.946-.051 24.239 13.591 55.032 34.804 69.802 58.493 5.363 8.604 5.645 19.529.734 28.512-1.576 2.885-3.158 5.713-4.701 8.404-5.664 9.87-18.367 13.417-28.313 7.905-7.143-3.955-16.038-1.893-20.696 4.796-3.095 4.446-6.813 10.194-10.443 16.796-17.14-15.732-38.234-27.106-60.906-32.859 2.986-5.953 6.425-11.845 10.41-17.552 2.371-3.396 1.541-8.071-1.855-10.443-3.396-2.374-8.07-1.541-10.443 1.855-26.023 37.266-31.158 81.2-31.903 104.072-.374 11.5 8.321 21.177 19.796 22.032l21.947 1.634c6.7 9.088 19.264 18.484 42.589 18.484h193.996c4.143 0 7.5-3.358 7.5-7.5s-3.357-7.5-7.5-7.5h-72.085l22.244-16.613 5.292 7.084c1.858 2.488 4.574 4.103 7.646 4.548.565.082 1.131.122 1.691.122 2.489 0 4.902-.797 6.933-2.313l18.198-13.593c2.488-1.858 4.104-4.574 4.548-7.648.445-3.073-.333-6.135-2.191-8.623l-5.291-7.083 43.548-32.531c4.06-.622 8.071-1.95 11.85-4.044.389-.217.87-.109 1.118.246 7.267 10.436 24.04 37.228 22.851 60.554-.266 5.213 1.709 10.281 5.416 13.902 3.334 3.256 7.806 5.063 12.435 5.063.439 0 .881-.016 1.322-.049l3.155-.235c-3.638.797-7.651 1.211-12.058 1.211h-41.622c-4.143 0-7.5 3.358-7.5 7.5s3.357 7.5 7.5 7.5h41.621c23.324 0 35.889-9.396 42.59-18.484l21.946-1.634c11.475-.854 20.17-10.532 19.796-22.032-1.781-54.788-22.84-110.02-69.279-140.588zm-11.351 133.227c-1.393-8.134-4.013-16.134-7.174-23.583 16.447-16.242 37.463-27.777 60.118-33.045 5.252 13.614 8.381 27.02 10.226 38.703-21.962 1.963-43.479 8.067-63.17 17.925zm-9.762-252.302c2.057 0 3.73 1.673 3.73 3.73v24.311c0 2.057-1.674 3.73-3.73 3.73h-16.88v-31.771zm-176.773-146.61c-1.465-12.559 3.665-26.061 13.389-35.236 9.472-8.938 22.857-13.785 36.769-13.31 14.586.494 28.398 6.453 43.022 12.762 19.651 8.479 42.136 17.603 65.023 12.33-3.05 8.101-7.823 15.279-13.904 20.773-2.454 2.214-3.588 5.479-3.031 8.736.553 3.236 2.689 5.922 5.759 7.203 6.845 2.808 14.062 4.268 21.027 4.313-5.326 10.307-12.788 19.07-20.879 24.296-4.762 3.074-9.923 5.46-15.386 7.14-13.616-18.413-33.828-31.663-57.117-36.236v-12.432c0-14.971-12.18-27.15-27.15-27.15s-27.15 12.18-27.15 27.15v12.433c-4.803.943-9.477 2.25-13.987 3.9-3.458-4.982-5.69-10.754-6.385-16.672zm59.672 11.074c-1.007-.032-2.016-.054-3.03-.054 0 0-20.264.022-21.271.054v-10.735c0-6.7 5.45-12.15 12.15-12.15s12.15 5.451 12.15 12.15v10.735zm-21.27 14.945h18.24c39.204 0 71.778 28.916 77.514 66.537l-34.071-16.229c-2.378-1.133-5.026-1.731-7.66-1.731h-89.805c-2.634 0-5.282.599-7.66 1.731l-34.07 16.228c5.735-37.62 38.309-66.536 77.512-66.536zm-120.131 152.362c-2.057 0-3.73-1.673-3.73-3.73v-24.311c0-2.057 1.674-3.73 3.73-3.73h16.88v31.771zm31.88 29.381v-93.477l51.26-24.416c.375-.179.794-.273 1.209-.273h89.805c.415 0 .834.095 1.209.273l51.26 24.416v93.477c0 .873-.395 1.682-1.083 2.218l-78.712 61.389c-.491.383-1.104.594-1.729.594h-31.695c-.624 0-1.237-.211-1.729-.595l-78.711-61.389c-.69-.535-1.084-1.344-1.084-2.217zm31.604 58.156c3.696-1.582 7.439-3.041 11.209-4.369l27.755 21.647c3.114 2.429 7.005 3.767 10.955 3.767h31.695c3.95 0 7.841-1.338 10.954-3.767l27.756-21.648c3.77 1.328 7.513 2.788 11.209 4.369-8.483 8.601-13.786 15.827-16.97 20.933-4.557 7.311-6.716 15.706-6.468 24.074-26.872 4.957-56.918 5.117-84.658 0 .248-8.368-1.91-16.763-6.468-24.074-3.183-5.105-8.486-12.331-16.969-20.932zm-66.072 109.411c-3.161 7.449-5.781 15.449-7.174 23.583-19.698-9.862-41.225-15.967-63.196-17.927 1.845-11.789 4.975-25.164 10.205-38.712 22.673 5.262 43.707 16.803 60.165 33.056zm-72.813 31.432c.104-3.208.303-6.869.644-10.878 22.369 1.928 44.246 8.555 63.886 19.387-.179.698-.557 1.175-.818 1.431-.411.402-1.131.862-2.162.786l-55.633-4.141c-3.429-.255-6.029-3.148-5.917-6.585zm57.282 25.45 3.155.235c.441.033.882.049 1.322.049 4.629 0 9.101-1.807 12.435-5.063 3.707-3.622 5.682-8.689 5.416-13.903-1.189-23.326 15.584-50.118 22.851-60.554.247-.356.729-.461 1.118-.246 17.072 9.458 38.874 3.375 48.592-13.563 4.959-8.649 6.01-10.729 7.123-13.544 14.549 2.704 29.771 4.079 45.358 4.079s30.809-1.375 45.358-4.079c.597 1.51 1.283 2.993 2.056 4.445l-29.52 22.046-5.291-7.083c-1.858-2.489-4.574-4.104-7.648-4.549-3.078-.446-6.136.333-8.623 2.191l-18.199 13.593c-5.135 3.836-6.191 11.135-2.355 16.271l5.294 7.087-72.025 53.8c-41.704-.328-47.162.816-56.417-1.212zm108.907 1.212h-27.425l55.936-41.782 9.824 13.151zm62.601-21.209c-4.138-5.54-29.032-38.865-34.324-45.95l12.79-9.554c5.171 6.922 30.264 40.514 34.324 45.95zm2.733-48.083 28.211-21.069c3.55 4.65 8.107 8.24 13.192 10.637l-31.576 23.588zm74.642-26.525c-2.614 0-5.264.649-7.707 2.002-9.95 5.513-22.651 1.963-28.312-7.904-1.544-2.692-3.126-5.521-4.703-8.407-4.909-8.982-4.628-19.907.735-28.51 14.773-23.695 45.57-44.906 69.802-58.494.823-.459 1.512-.225 1.946.052.429.274.925.794.853 1.718-.563 7.249-1.086 14.298-1.555 20.951-.537 7.614 3.12 14.971 9.545 19.201 20.541 13.521 34.379 31.536 43.694 50.136-22.656 5.755-43.734 17.127-60.865 32.849-3.631-6.602-7.348-12.35-10.444-16.796-3.065-4.4-7.963-6.798-12.989-6.798zm97.221 75.74-55.633 4.141c-1.036.082-1.752-.384-2.162-.786-.262-.256-.64-.732-.819-1.431 19.638-10.831 41.512-17.458 63.878-19.386.352 4.084.551 7.75.652 10.876.113 3.438-2.486 6.331-5.916 6.586z" fill="#F3C65D" data-original="#000000"/></g></g></svg>
