<?xml version="1.0"?>
<svg xmlns="http://www.w3.org/2000/svg" xmlns:xlink="http://www.w3.org/1999/xlink" xmlns:svgjs="http://svgjs.com/svgjs"
	version="1.1" width="512" height="512" x="0" y="0" viewBox="0 0 512 512" style="enable-background:new 0 0 512 512"
	xml:space="preserve" class="">
	<g>
		<g xmlns="http://www.w3.org/2000/svg">
			<g>
				<path
					d="M319.015,446.632c1.498-11.429,5.633-22.354,12.077-31.911c0.153-0.277,0.29-0.563,0.408-0.856    c138.042-80.998,146.29-257.988,146.358-259.952c0.148-3.966-2.46-7.51-6.292-8.546c-16.132-4.444-31.48-11.354-45.502-20.484    c2.033-9.314-1.285-18.985-8.608-25.089c-7.323-6.104-17.434-7.626-26.229-3.948c-9.955-10.575-18.802-22.14-26.402-34.516    c-0.142-0.229-0.292-0.45-0.45-0.667c-5.785-9.185-10.745-18.864-14.823-28.924C346.306,9.981,299.615,0,256,0    s-90.306,9.981-93.552,31.739c-4.078,10.06-9.038,19.739-14.823,28.924c-0.158,0.217-0.308,0.438-0.45,0.667    c-7.6,12.376-16.447,23.941-26.402,34.516c-8.796-3.706-18.925-2.196-26.256,3.916c-7.332,6.111-10.642,15.802-8.581,25.122    c-14.022,9.13-29.371,16.039-45.502,20.484c-3.831,1.036-6.44,4.58-6.292,8.546c0.069,1.964,8.315,178.943,146.358,259.951    c0.119,0.294,0.255,0.58,0.408,0.857c6.399,9.578,10.514,20.497,12.029,31.916c-54.387,5.073-82.004,15.561-82.004,31.23    C110.933,510.354,231.775,512,256,512s145.067-1.646,145.067-34.133C401.067,462.193,373.434,451.703,319.015,446.632z     M401.067,110.933c4.711,0.005,8.529,3.822,8.533,8.533c0,4.713-3.82,8.533-8.533,8.533s-8.533-3.82-8.533-8.533    S396.354,110.933,401.067,110.933z M384,149.333c0,7.069-5.731,12.8-12.8,12.8c-7.066-0.008-12.792-5.734-12.8-12.8    c0-7.069,5.731-12.8,12.8-12.8C378.269,136.533,384,142.264,384,149.333z M256,17.067c49.467,0,75.05,12.237,76.775,17.067    C331.05,38.963,305.467,51.2,256,51.2c-49.917,0-75.508-12.459-76.817-16.938C180.492,29.525,206.083,17.067,256,17.067z     M161.434,70.733l0.35-0.521v0.004c4.595-7.384,8.131-13.978,10.786-19.353c4.727,3.21,9.86,5.778,15.265,7.634    c0.594,0.292,1.221,0.511,1.868,0.653c21.5,6.427,43.862,9.502,66.298,9.115c22.439,0.386,44.803-2.689,66.304-9.118    c0.636-0.141,1.253-0.357,1.839-0.643c5.412-1.857,10.553-4.427,15.287-7.642c2.655,5.374,6.192,11.969,10.786,19.353v-0.004    l0.35,0.521c8.105,13.124,17.512,25.399,28.078,36.638c-2.056,3.702-3.148,7.862-3.177,12.096c0,0.149,0.042,0.287,0.044,0.436    c-1.424-0.251-2.865-0.397-4.31-0.436c-15.301,0.049-28.078,11.677-29.567,26.905c-2.874-0.825-5.844-1.263-8.833-1.305    c-16.514,0.034-30.634,11.888-33.528,28.147c-15.493-6.019-33.1-1.13-43.272,12.015c-7.211-9.158-18.21-14.521-29.867-14.562    c-4.585,0.033-9.127,0.896-13.405,2.547c-2.894-16.259-17.014-28.112-33.528-28.147c-2.989,0.041-5.96,0.48-8.833,1.305    c-1.488-15.228-14.266-26.855-29.567-26.905c-1.446,0.039-2.886,0.185-4.31,0.436c0.002-0.148,0.044-0.286,0.044-0.436    c-0.029-4.234-1.122-8.394-3.177-12.096C143.922,96.132,153.329,83.858,161.434,70.733z M349.867,179.2    c0,9.426-7.641,17.067-17.067,17.067c-9.421-0.011-17.056-7.645-17.067-17.067c0-9.426,7.641-17.067,17.067-17.067    S349.867,169.774,349.867,179.2z M307.2,209.067c0,11.782-9.551,21.333-21.333,21.333c-11.782,0-21.333-9.551-21.333-21.333    c0.012-11.777,9.556-21.321,21.333-21.333C297.649,187.733,307.2,197.285,307.2,209.067z M247.467,209.067    c0,11.782-9.551,21.333-21.333,21.333c-11.782,0-21.333-9.551-21.333-21.333c0.012-11.777,9.556-21.321,21.333-21.333    C237.916,187.733,247.467,197.285,247.467,209.067z M196.267,179.2c0,9.426-7.641,17.067-17.067,17.067    s-17.067-7.641-17.067-17.067c0.011-9.421,7.646-17.056,17.067-17.067C188.626,162.133,196.267,169.774,196.267,179.2z     M140.8,136.533c7.069,0,12.8,5.731,12.8,12.8c0,7.069-5.731,12.8-12.8,12.8s-12.8-5.731-12.8-12.8    C128.008,142.267,133.734,136.541,140.8,136.533z M110.933,110.933c4.713,0,8.533,3.82,8.533,8.533s-3.82,8.533-8.533,8.533    c-4.713,0-8.533-3.82-8.533-8.533C102.405,114.756,106.223,110.938,110.933,110.933z M51.683,159.85    c15.294-4.865,29.868-11.758,43.331-20.494c4.496,3.67,10.115,5.686,15.919,5.711c0.15,0,0.287-0.042,0.435-0.044    c-0.25,1.424-0.396,2.865-0.435,4.311c0.02,16.487,13.38,29.847,29.867,29.867c1.446-0.039,2.886-0.185,4.31-0.436    c-0.002,0.149-0.044,0.286-0.044,0.436c0.02,18.843,15.29,34.113,34.133,34.133c2.989-0.041,5.96-0.48,8.833-1.305    c1.101,15.716,11.76,29.133,26.82,33.759c15.06,4.626,31.413-0.495,41.146-12.883c9.733,12.388,26.086,17.508,41.146,12.883    c15.06-4.626,25.72-18.043,26.82-33.759c2.874,0.825,5.844,1.263,8.833,1.305c18.843-0.02,34.113-15.29,34.133-34.133    c0-0.15-0.042-0.287-0.044-0.436c1.424,0.251,2.865,0.397,4.31,0.436c16.487-0.02,29.847-13.38,29.867-29.867    c-0.039-1.446-0.185-2.887-0.435-4.311c0.148,0.003,0.285,0.044,0.435,0.044c5.804-0.025,11.424-2.041,15.92-5.711    c13.465,8.738,28.041,15.631,43.339,20.495c-3.225,35.575-26.667,205.279-181.45,259.613c-14.81,5.144-30.921,5.147-45.733,0.009    C78.567,365.208,54.95,195.438,51.683,159.85z M256,494.933c-74.283,0-117.017-10.471-126.642-17.025    c5.395-3.534,23.085-10.209,63.839-14.156c-0.413,3.992-1.165,7.941-2.247,11.806c-0.837,2.94-0.038,6.102,2.094,8.292    c2.132,2.19,5.273,3.072,8.234,2.313s5.29-3.043,6.106-5.988c4.914-17.57,4.321-36.224-1.701-53.445    c7.02,3.164,14.22,6.18,21.826,8.849c18.461,6.403,38.541,6.4,57-0.008c7.6-2.668,14.794-5.682,21.81-8.842    c-6.023,17.222-6.617,35.876-1.702,53.446c0.816,2.945,3.145,5.23,6.106,5.988c2.961,0.759,6.101-0.123,8.234-2.313    c2.132-2.19,2.931-5.352,2.094-8.292c-1.084-3.865-1.841-7.815-2.263-11.807c40.765,3.946,58.458,10.622,63.854,14.157    C373.017,484.463,330.283,494.933,256,494.933z"
					fill="#F3C65D" data-original="#000000" style="" />
			</g>
		</g>
		<g xmlns="http://www.w3.org/2000/svg">
		</g>
		<g xmlns="http://www.w3.org/2000/svg">
		</g>
		<g xmlns="http://www.w3.org/2000/svg">
		</g>
		<g xmlns="http://www.w3.org/2000/svg">
		</g>
		<g xmlns="http://www.w3.org/2000/svg">
		</g>
		<g xmlns="http://www.w3.org/2000/svg">
		</g>
		<g xmlns="http://www.w3.org/2000/svg">
		</g>
		<g xmlns="http://www.w3.org/2000/svg">
		</g>
		<g xmlns="http://www.w3.org/2000/svg">
		</g>
		<g xmlns="http://www.w3.org/2000/svg">
		</g>
		<g xmlns="http://www.w3.org/2000/svg">
		</g>
		<g xmlns="http://www.w3.org/2000/svg">
		</g>
		<g xmlns="http://www.w3.org/2000/svg">
		</g>
		<g xmlns="http://www.w3.org/2000/svg">
		</g>
		<g xmlns="http://www.w3.org/2000/svg">
		</g>
	</g>
</svg>