<?xml version="1.0"?>
<svg xmlns="http://www.w3.org/2000/svg" xmlns:xlink="http://www.w3.org/1999/xlink" xmlns:svgjs="http://svgjs.com/svgjs" version="1.1" width="512" height="512" x="0" y="0" viewBox="0 0 512 512" style="enable-background:new 0 0 512 512" xml:space="preserve" class=""><g><path xmlns="http://www.w3.org/2000/svg" d="M510.657,378.82l-51.923-93.462c1.746-33.673,36.373-51.65,36.7-51.818a10.666,10.666,0,0,0,5.578-6.954l10.667-42.666a10.666,10.666,0,0,0-5.578-12.128l-64-32a10.659,10.659,0,0,0-4.77-1.126h-32v-32H439.3a32,32,0,1,0,0-21.333H405.333a32,32,0,1,0-64,0h-128a32,32,0,0,0-64,0H72.7a32,32,0,1,0,0,21.333H192v32H160a10.645,10.645,0,0,0-2.092.207l-53.333,10.667a10.665,10.665,0,0,0-7.335,5.469l-96,181.333A10.668,10.668,0,0,0,5.9,350.874l42.667,21.333A10.666,10.666,0,0,0,62.7,367.774l43.969-80.609V448a10.667,10.667,0,0,0,10.667,10.667H288A10.667,10.667,0,0,0,298.666,448V287.164l43.969,80.609a10.667,10.667,0,0,0,14.135,4.434l42.667-21.333a10.667,10.667,0,0,0,4.657-14.531l-96-181.333a10.665,10.665,0,0,0-7.335-5.469l-53.333-10.667a10.639,10.639,0,0,0-2.091-.207h-32v-32H384v32H352a10.656,10.656,0,0,0-4.77,1.126l-10.667,5.333a10.667,10.667,0,0,0-4.771,14.311,10.515,10.515,0,0,0,12.1,5.369,52.974,52.974,0,0,0,101.412.438l43.6,21.8-7.484,29.934c-10.962,6.671-38.288,26.538-43.24,60.352h-27.52a10.667,10.667,0,1,0,0,21.333h31.058l47.342,85.216a123.316,123.316,0,0,1-20.875,24.8c-20.859,19.008-45.6,28.646-73.525,28.646-21.691,0-41.626-4.445-59.252-13.212a10.667,10.667,0,0,0-9.5,19.1c20.6,10.247,43.736,15.443,68.752,15.443,33.258,0,63.884-12.044,88.569-34.829,18.553-17.126,27.276-34.343,27.638-35.068A10.662,10.662,0,0,0,510.657,378.82ZM469.333,85.334A10.667,10.667,0,1,1,458.666,96,10.679,10.679,0,0,1,469.333,85.334ZM42.667,106.667A10.667,10.667,0,1,1,53.333,96,10.678,10.678,0,0,1,42.667,106.667ZM237.79,210.209,251.581,224,220.4,255.183l19.377-93.007a10.136,10.136,0,0,0,.012-1.932l13.152,19.73-15.15,15.15A10.667,10.667,0,0,0,237.79,210.209Zm-70.248-15.085-15.15-15.15,13.153-19.73a10.136,10.136,0,0,0,.012,1.932l19.376,93.006L153.752,224l13.79-13.791A10.666,10.666,0,0,0,167.542,195.124ZM186.9,160h31.542l-15.771,75.7ZM128,437.333v-192a10.667,10.667,0,0,0-20.031-5.108L48.9,348.523,25.2,336.675l88.521-167.208,23.117-4.623-7.049,10.574a10.668,10.668,0,0,0,1.332,13.46l13.791,13.79-13.791,13.79a10.667,10.667,0,0,0,0,15.085L192,292.419V437.333ZM380.131,336.675l-23.7,11.848-59.071-108.3a10.667,10.667,0,0,0-20.031,5.108v192h-64V292.418l60.876-60.876a10.666,10.666,0,0,0,0-15.085l-13.79-13.79,13.79-13.79a10.668,10.668,0,0,0,1.333-13.46l-7.049-10.574,23.116,4.623ZM170.667,85.334a10.667,10.667,0,0,1,21.333,0Zm192,0a10.667,10.667,0,1,1,21.333,0Zm32,96A31.95,31.95,0,0,1,364.632,160H424.7A31.95,31.95,0,0,1,394.666,181.334Z" fill="#F3C65D" data-original="#000000"/></g></svg>
