<?xml version="1.0"?>
<svg xmlns="http://www.w3.org/2000/svg" xmlns:xlink="http://www.w3.org/1999/xlink" xmlns:svgjs="http://svgjs.com/svgjs"
    version="1.1" width="512" height="512" x="0" y="0" viewBox="0 0 44 60" style="enable-background:new 0 0 512 512"
    xml:space="preserve" class="">
    <g>
        <g xmlns="http://www.w3.org/2000/svg" id="Page-1" fill="none" fill-rule="evenodd">
            <g id="006---Vase" fill="rgb(0,0,0)" fill-rule="nonzero" transform="translate(-1)">
                <path id="Shape"
                    d="m28 8h-10c-.5522847 0-1 .44771525-1 1s.4477153 1 1 1h10c.5522847 0 1-.44771525 1-1s-.4477153-1-1-1z"
                    fill="#F3C65D" data-original="#000000" />
                <path id="Shape"
                    d="m12.053 52.855-3.4 1.7c-1.01617239.5064206-1.65691163 1.5456353-1.653 2.681v.764c0 1.1045695.8954305 2 2 2h28c1.1045695 0 2-.8954305 2-2v-.764c.0037331-1.1372028-.6392359-2.1776646-1.658-2.683l-3.395-1.7c6.034-4.696 11.053-15.297 11.053-23.853.1255902-4.4616986-1.7440452-8.7471962-5.1-11.69-.013-.014-.027-.024-.04-.037-2.1081713-1.8256888-4.392371-3.4375921-6.819-4.812.1078588-1.0471727.3985993-2.0673029.859-3.014.6182412-1.30836135 1.472923-2.49121935 2.521-3.489 1.5613067-.2149705 2.6884001-1.60387388 2.5773123-3.17599043s-1.4222901-2.78872679-2.9983123-2.78200957h-26c-1.57501904-.004015-2.88365622 1.21332139-2.99336061 2.78452031-.10970439 1.57119891 1.01706595 2.95858054 2.57736061 3.17347969 1.0481986.99767441 1.9028979 2.1805565 2.521 3.489.4595567.946816.7492894 1.9669729.856 3.014-2.4267704 1.3741849-4.71099143 2.9861033-6.819 4.812-.013.013-.027.023-.04.037-3.35669711 2.9424264-5.22708921 7.2279779-5.102 11.69 0 8.556 5.019 19.157 11.053 23.855zm24.947 4.381.0000051.764h-28.00001022l.00000512-.764c-.00121288-.379067.21327966-.7258235.553-.894l4.683-2.342h17.528l4.683 2.342c.3397203.1681765.5542129.514933.553.894zm-5.285-5.236h-17.43c-3.018-1.922-5.88-5.677-7.969-10h17.684c.5522847 0 1-.4477153 1-1s-.4477153-1-1-1h-18.572c-.88099164-2.1180881-1.54375144-4.3204744-1.978-6.573.48643568.3511202.92365547.7658064 1.3 1.233.96248164 1.4130781 2.54124766 2.2823281 4.25 2.34 1.7110014-.0570048 3.2917974-.9280405 4.254-2.344.924-1.056 1.507-1.656 2.736-1.656s1.821.6 2.747 1.659c.9626555 1.4145408 2.5429053 2.2843656 4.253 2.341 1.7100947-.0566344 3.2903445-.9264592 4.253-2.341.927-1.059 1.511-1.659 2.747-1.659s1.821.6 2.747 1.659c.9247182 1.4581948 2.5313165 2.3417778 4.258 2.3417778s3.3332818-.883583 4.258-2.3417778c.3763112-.4666432.8135472-.8806721 1.3-1.231-.435283 2.2522943-1.0990479 4.4543453-1.981 6.572h-12.572c-.5522847 0-1 .4477153-1 1s.4477153 1 1 1h11.684c-2.084 4.323-4.951 8.078-7.969 10zm-28.715-23c-.0140321-1.5037023.20213672-3.0006967.641-4.439.40470946.3292253.77585073.6976868 1.108 1.1.96200926 1.4139636 2.54172044 2.2831578 4.251 2.339 1.7110014-.0570048 3.2917974-.9280405 4.254-2.344.924-1.056 1.507-1.656 2.736-1.656s1.821.6 2.747 1.659c.9626555 1.4145408 2.5429053 2.2843656 4.253 2.341 1.7100947-.0566344 3.2903445-.9264592 4.253-2.341.927-1.059 1.511-1.659 2.747-1.659s1.821.6 2.747 1.659c.9248104 1.4577435 2.5311482 2.3409895 4.2575 2.3409895s3.3326896-.883246 4.2575-2.3409895c.331453-.4026116.702294-.7711076 1.107-1.1.4390654 1.4389437.6552364 2.9366281.641 4.441 0 .7-.05 1.412-.121 2.137-1.2566174.3697136-2.3565696 1.142843-3.13 2.2-.813.93-1.456 1.663-2.759 1.663-1.236 0-1.82-.6-2.747-1.659-.9229256-1.4574674-2.5278905-2.3408333-4.253-2.3408333s-3.3300744.8833659-4.253 2.3408333c-.926 1.059-1.51 1.659-2.747 1.659s-1.82-.6-2.747-1.659c-.9626555-1.4145408-2.5429053-2.2843656-4.253-2.341-1.7067818.0569759-3.2834103.9266861-4.242 2.34-.927 1.06-1.512 1.66-2.748 1.66s-1.821-.6-2.748-1.658c-.77352882-1.0574971-1.87391821-1.8306867-3.131-2.2-.071-.73-.121-1.442-.121-2.142zm4.188-10h10.812c.5522847 0 1-.4477153 1-1s-.4477153-1-1-1h-8.379c1.432-1.037 3.011-2.005 4.658-3h17.442c1.647.995 3.226 1.963 4.658 3h-14.379c-.5522847 0-1 .4477153-1 1s.4477153 1 1 1h16.812c1.1303108 1.0533168 2.0731056 2.2913268 2.788 3.661-.6999827.4603946-1.3238229 1.0272153-1.849 1.68-.932 1.059-1.517 1.659-2.761 1.659s-1.82-.6-2.747-1.659c-.9229256-1.4574674-2.5278905-2.3408333-4.253-2.3408333s-3.3300744.8833659-4.253 2.3408333c-.926 1.059-1.51 1.659-2.747 1.659s-1.82-.6-2.747-1.659c-.9626555-1.4145408-2.5429053-2.2843656-4.253-2.341-1.7067818.0569759-3.2834103.9266861-4.242 2.34-.927 1.06-1.512 1.66-2.748 1.66s-1.82-.6-2.746-1.656c-.52490981-.6542467-1.1491575-1.2221434-1.85-1.683.71368888-1.3693714 1.65511665-2.6073624 2.784-3.661zm24.912-10.447c-.5275815 1.08517987-.8731892 2.2497054-1.023 3.447h-16.154c-.1498108-1.1972946-.4954185-2.36182013-1.023-3.447-.4481011-.9000038-.9815468-1.75492329-1.593-2.553h21.386c-.6114532.79807671-1.1448989 1.6529962-1.593 2.553zm-22.1-6.553h26c.5522847 0 1 .44771525 1 1s-.4477153 1-1 1h-26c-.55228475 0-1-.44771525-1-1s.44771525-1 1-1z"
                    fill="#F3C65D" data-original="#000000" />
            </g>
        </g>
    </g>
</svg>