<?xml version="1.0"?>
<svg xmlns="http://www.w3.org/2000/svg" xmlns:xlink="http://www.w3.org/1999/xlink" xmlns:svgjs="http://svgjs.com/svgjs" version="1.1" width="512" height="512" x="0" y="0" viewBox="0 0 512 512" style="enable-background:new 0 0 512 512" xml:space="preserve" class=""><g>
<g xmlns="http://www.w3.org/2000/svg">
	<g>
		<path d="M478.578,244.475H278.047c-3.81,0-7.42,0.78-10.829,1.961l56.305-56.305c6.306-6.306,9.759-14.706,9.759-23.64    c0-8.935-3.454-17.335-9.759-23.64L190.282,9.609c-12.589-12.611-34.692-12.611-47.281,0L9.759,142.85    C3.454,149.156,0,157.556,0,166.491s3.454,17.335,9.759,23.64l133.242,133.242c6.306,6.306,14.683,9.759,23.64,9.759    c8.957,0,17.335-3.454,23.64-9.759l56.305-56.305c-1.181,3.409-1.961,7.019-1.961,10.829v200.531    c0,18.427,14.995,33.422,33.422,33.422h200.531c18.427,0,33.422-14.995,33.422-33.422V277.897    C512,259.47,497.005,244.475,478.578,244.475z M182.394,271.368c-4.345,4.345-10.049,6.506-15.753,6.506    s-11.408-2.161-15.753-6.506c-8.712-8.69-8.712-22.816,0-31.506c8.69-8.712,22.816-8.712,31.506,0    C191.106,248.552,191.106,262.679,182.394,271.368z M182.394,182.244c-4.345,4.345-10.049,6.506-15.753,6.506    c-5.704,0-11.408-2.161-15.753-6.506c-8.712-8.69-8.712-22.816,0-31.506c8.69-8.712,22.816-8.712,31.506,0    C191.106,159.428,191.106,173.554,182.394,182.244z M182.394,93.119c-4.345,4.345-10.049,6.506-15.753,6.506    c-5.704,0-11.408-2.161-15.753-6.506c-8.712-8.69-8.712-22.816,0-31.506c8.69-8.712,22.816-8.712,31.506,0    C191.106,70.303,191.106,84.429,182.394,93.119z M311.469,467.287c-12.277,0-22.281-9.982-22.281-22.281    c0-12.299,10.004-22.281,22.281-22.281c12.277,0,22.281,9.982,22.281,22.281C333.75,457.305,323.746,467.287,311.469,467.287z     M311.469,333.6c-12.277,0-22.281-9.982-22.281-22.281c0-12.299,10.004-22.281,22.281-22.281c12.277,0,22.281,9.982,22.281,22.281    C333.75,323.618,323.746,333.6,311.469,333.6z M378.313,400.444c-12.277,0-22.281-9.982-22.281-22.281    c0-12.299,10.004-22.281,22.281-22.281s22.281,9.982,22.281,22.281C400.594,390.462,390.59,400.444,378.313,400.444z     M445.156,467.287c-12.277,0-22.281-9.982-22.281-22.281c0-12.299,10.004-22.281,22.281-22.281s22.281,9.982,22.281,22.281    C467.438,457.305,457.433,467.287,445.156,467.287z M445.156,333.6c-12.277,0-22.281-9.982-22.281-22.281    c0-12.299,10.004-22.281,22.281-22.281s22.281,9.982,22.281,22.281C467.438,323.618,457.433,333.6,445.156,333.6z" fill="#F3C65D" data-original="#000000"/>
	</g>
</g>
<g xmlns="http://www.w3.org/2000/svg">
</g>
<g xmlns="http://www.w3.org/2000/svg">
</g>
<g xmlns="http://www.w3.org/2000/svg">
</g>
<g xmlns="http://www.w3.org/2000/svg">
</g>
<g xmlns="http://www.w3.org/2000/svg">
</g>
<g xmlns="http://www.w3.org/2000/svg">
</g>
<g xmlns="http://www.w3.org/2000/svg">
</g>
<g xmlns="http://www.w3.org/2000/svg">
</g>
<g xmlns="http://www.w3.org/2000/svg">
</g>
<g xmlns="http://www.w3.org/2000/svg">
</g>
<g xmlns="http://www.w3.org/2000/svg">
</g>
<g xmlns="http://www.w3.org/2000/svg">
</g>
<g xmlns="http://www.w3.org/2000/svg">
</g>
<g xmlns="http://www.w3.org/2000/svg">
</g>
<g xmlns="http://www.w3.org/2000/svg">
</g>
</g></svg>
