<?xml version="1.0"?>
<svg xmlns="http://www.w3.org/2000/svg" xmlns:xlink="http://www.w3.org/1999/xlink" xmlns:svgjs="http://svgjs.com/svgjs" version="1.1" width="512" height="512" x="0" y="0" viewBox="0 0 422.667 422.667" style="enable-background:new 0 0 512 512" xml:space="preserve" class=""><g>
<g xmlns="http://www.w3.org/2000/svg">
	<g>
		<path d="M250.534,40.667c-12-14-22.8-26.4-31.2-36.8c-0.4-0.8-1.2-1.2-1.6-1.6c-4.4-3.6-10.8-2.8-14.4,1.6    c-8.4,10.4-19.2,22.8-31.2,36.8c-52.8,61.2-126,146-126,216.8c0,45.6,18.4,86.8,48.4,116.8c30,29.6,71.2,48.4,116.8,48.4    c45.6,0,86.8-18.4,116.8-48.4s48.4-71.2,48.4-116.8C376.534,186.667,303.334,101.867,250.534,40.667z M313.734,359.467    c-26.4,26.4-62.4,42.8-102.4,42.8s-76-16.4-102.4-42.4c-26-26-42.4-62.4-42.4-102.4c0-63.2,70.4-144.8,121.2-203.6    c8.4-10,16.4-19.2,23.6-28c7.2,8.8,15.2,18,23.6,27.6c50.8,58.8,121.2,140,121.2,203.6    C356.134,297.067,339.734,333.067,313.734,359.467z" fill="#F3C65D" data-original="#000000" style=""/>
	</g>
</g>
<g xmlns="http://www.w3.org/2000/svg">
	<g>
		<path d="M212.134,349.867c-24.8,0-47.2-10-63.2-26s-26-38.4-26-63.2c0-5.6-4.4-10-10-10c-5.6,0-10,4.4-10,10    c0,30.4,12.4,57.6,32,77.6c19.2,19.2,46.8,31.6,77.2,31.6c5.6,0,10-4.4,10-10C222.134,354.267,217.734,349.867,212.134,349.867z" fill="#F3C65D" data-original="#000000" style=""/>
	</g>
</g>
<g xmlns="http://www.w3.org/2000/svg">
</g>
<g xmlns="http://www.w3.org/2000/svg">
</g>
<g xmlns="http://www.w3.org/2000/svg">
</g>
<g xmlns="http://www.w3.org/2000/svg">
</g>
<g xmlns="http://www.w3.org/2000/svg">
</g>
<g xmlns="http://www.w3.org/2000/svg">
</g>
<g xmlns="http://www.w3.org/2000/svg">
</g>
<g xmlns="http://www.w3.org/2000/svg">
</g>
<g xmlns="http://www.w3.org/2000/svg">
</g>
<g xmlns="http://www.w3.org/2000/svg">
</g>
<g xmlns="http://www.w3.org/2000/svg">
</g>
<g xmlns="http://www.w3.org/2000/svg">
</g>
<g xmlns="http://www.w3.org/2000/svg">
</g>
<g xmlns="http://www.w3.org/2000/svg">
</g>
<g xmlns="http://www.w3.org/2000/svg">
</g>
</g></svg>
