<?xml version="1.0"?>
<svg xmlns="http://www.w3.org/2000/svg" xmlns:xlink="http://www.w3.org/1999/xlink" xmlns:svgjs="http://svgjs.com/svgjs" version="1.1" width="512" height="512" x="0" y="0" viewBox="0 0 512 512" style="enable-background:new 0 0 512 512" xml:space="preserve" class=""><g><g xmlns="http://www.w3.org/2000/svg"><path d="m509.346 219.439-257.169-217.663c-4.4-2.879-8.181-2.218-11.344 1.981l-30.882 53.62-64.528 16.157-19.499-67.126c-1.125-3.874-5.113-6.16-9.024-5.183l-51.145 12.807c-4.018 1.006-6.46 5.079-5.454 9.097s5.08 6.457 9.097 5.454l44.136-11.053 19.499 67.126c1.125 3.874 5.11 6.162 9.024 5.183l67.809-16.979 27.834 95.807-22.783 6.557-19.431-66.882c-1.257-4.324-6.298-6.808-10.578-4.794l-66.254 16.589-19.499-67.124c-1.125-3.873-5.111-6.161-9.024-5.183l-67.584 16.925-5.903-22.961 25.323-6.341c4.018-1.006 6.46-5.079 5.454-9.097-1.006-4.019-5.082-6.462-9.097-5.454l-32.645 8.175c-4.35 1.538-6.164 4.586-5.442 9.143l9.639 37.489c1.027 3.994 5.085 6.408 9.085 5.408l67.805-16.98 19.499 67.125c1.125 3.873 5.111 6.164 9.024 5.183l57.403-14.373-38.541 66.919-127.771 19.304c-3.093.468-5.571 2.806-6.218 5.866-.646 3.061.675 6.201 3.315 7.879l81.722 51.945-84.198 146.194c-3.474 6.032 2.875 13.267 9.284 10.707l119.662-47.855c-1.615 69.729 56.307 128.969 126.053 128.969 4.142 0 7.5-3.358 7.5-7.5v-117.182l194.317 123.512c5.643 3.586 13.017-1.805 11.263-8.288l-17.148-63.417c-1.081-3.998-5.198-6.363-9.197-5.282s-6.364 5.199-5.282 9.198l12.104 44.764-186.057-118.262v-39.922l129.301-51.709 37.283 137.88c1 3.699 5.526 6.278 9.197 5.282 3.999-1.081 6.364-5.199 5.282-9.197l-37.741-139.573 100.463-40.177c4.807-1.922 6.517-8.916 2.061-12.688zm-480.908.694 96.143-14.526-31.888 55.368zm116.475 165.861c0-57.526 46.155-106.912 103.587-110.756v221.512c-57.77-3.867-103.587-52.065-103.587-110.756zm118.587-72.528v-45.979c0-4.142-3.358-7.5-7.5-7.5-62.813 0-115.045 46.139-124.545 106.285l-106.665 42.659 161.126-279.765 16.685 57.428c1.071 3.685 5.62 6.167 9.276 5.115l37.198-10.705c4.282-1.681 5.992-4.781 5.128-9.3l-31.112-107.087 26.255-45.586 240.79 203.801z" fill="#F3C65D" data-original="#000000" class=""/><path d="m372.24 54.158c3.535 2.929 7.071 2.929 10.606 0l15.374-15.374 15.374 15.374c3.535 2.929 7.071 2.929 10.606 0 2.929-2.929 2.929-7.678 0-10.606l-15.374-15.374 15.374-15.374c2.929-2.929 2.929-7.678 0-10.606-2.929-2.929-7.678-2.929-10.606 0l-15.374 15.373-15.374-15.374c-2.929-2.929-7.678-2.929-10.606 0-2.929 2.929-2.929 7.678 0 10.606l15.374 15.374-15.374 15.375c-2.929 2.929-2.929 7.678 0 10.606z" fill="#F3C65D" data-original="#000000" class=""/><path d="m97.092 457.842c-2.929-2.929-7.678-2.929-10.606 0l-15.374 15.374-15.374-15.374c-2.929-2.929-7.678-2.929-10.606 0-2.929 2.929-2.929 7.678 0 10.606l15.374 15.374-15.376 15.375c-2.929 2.929-2.929 7.678 0 10.606 3.535 2.929 7.071 2.929 10.606 0l15.374-15.374 15.374 15.374c3.535 2.929 7.071 2.929 10.606 0 2.929-2.929 2.929-7.678 0-10.606l-15.374-15.374 15.374-15.374c2.931-2.929 2.931-7.678.002-10.607z" fill="#F3C65D" data-original="#000000" class=""/><path d="m480.562 139.771c17.335 0 31.438-14.103 31.438-31.437-1.581-41.649-61.301-41.638-62.876 0 .001 17.334 14.104 31.437 31.438 31.437zm0-47.875c9.064 0 16.438 7.374 16.438 16.438-.827 21.776-32.052 21.771-32.875 0 0-9.064 7.374-16.438 16.437-16.438z" fill="#F3C65D" data-original="#000000" class=""/></g></g></svg>
