<?xml version="1.0"?>
<svg xmlns="http://www.w3.org/2000/svg" xmlns:xlink="http://www.w3.org/1999/xlink" xmlns:svgjs="http://svgjs.com/svgjs"
    version="1.1" width="512" height="512" x="0" y="0" viewBox="0 0 512.009 512.009"
    style="enable-background:new 0 0 512 512" xml:space="preserve" class="">
    <g>
        <g xmlns="http://www.w3.org/2000/svg">
            <g>
                <path
                    d="m404.742 102.733c8.538 6.438 19.258 10.288 30.896 10.288 27.772 0 50.367-21.863 50.367-48.737s-22.595-48.737-50.367-48.737c-15.51 0-29.401 6.823-38.647 17.526-36.47-18.668-78.929-30.189-120.464-32.59-47.244-2.733-89.719 6.179-122.818 25.771-44.35 26.25-68.772 69.805-71.005 126.289-11.804 3.81-20.369 14.897-20.369 27.952v19.369c0 3.698.694 7.235 1.947 10.497-21.869 4.691-38.278 23.598-38.278 46.156 0 23.275 17.469 42.662 40.38 46.558.021 1.596.052 3.177.102 4.729.531 16.48-2.722 23.833-6.489 32.346-3.635 8.214-7.754 17.523-7.754 33.813 0 45.859 38.69 83.169 86.248 83.169 5.044 0 14.12 1.178 18.24 9.07 14.752 28.256 44.283 45.809 77.07 45.809 32.786 0 62.317-17.553 77.07-45.81 4.119-7.891 13.196-9.069 18.24-9.069 47.558 0 86.248-37.31 86.248-83.169 0-16.29-4.119-25.599-7.754-33.813-3.768-8.514-7.021-15.866-6.489-32.346.05-1.552.081-3.134.102-4.73 22.91-3.896 40.38-23.283 40.38-46.557 0-22.557-16.409-41.464-38.277-46.155 1.253-3.262 1.947-6.799 1.947-10.497v-19.369c0-13.088-8.608-24.2-20.458-27.982-.773-12.475-3.219-24.761-7.22-36.55 8.907-4.173 17.993-8.597 27.152-13.231zm30.896-67.185c16.744 0 30.367 12.891 30.367 28.737s-13.623 28.737-30.367 28.737-30.367-12.891-30.367-28.737 13.623-28.737 30.367-28.737zm-389.634 220.967c0-15.044 12.943-27.284 28.854-27.284h1.871c-5.51 15.257-8.659 34.703-9.833 53.503-12.049-3.276-20.892-13.786-20.892-26.219zm283.108 180.615c-16.286 0-29.397 7.222-35.97 19.814-11.293 21.629-34.03 35.065-59.341 35.065s-48.049-13.436-59.341-35.064c-6.573-12.592-19.684-19.814-35.97-19.814-36.529 0-66.248-28.337-66.248-63.169 0-12.062 2.667-18.09 6.044-25.72 4.156-9.394 8.867-20.041 8.189-41.084-.991-30.661 3.815-61.514 11.875-77.926h4.795c-2.56 37.198.189 64.51 18.061 77.496 16.614 12.071 43.023 9.366 85.629-8.772 8.499-3.619 17.571-5.453 26.965-5.453s18.466 1.834 26.965 5.453c25.358 10.797 44.978 16.126 60.211 16.125 10.359 0 18.692-2.466 25.417-7.352 17.872-12.986 20.621-40.298 18.062-77.497h4.794c8.059 16.41 12.866 47.264 11.876 77.926-.679 21.043 4.033 31.69 8.189 41.084 3.377 7.63 6.044 13.658 6.044 25.72.003 34.831-29.716 63.168-66.246 63.168zm15.299-207.899c1.85 25.599 1.632 53.03-9.772 61.316-9.858 7.164-32.077 3.464-66.038-10.995-10.99-4.679-22.698-7.051-34.799-7.051s-23.809 2.372-34.799 7.051c-33.962 14.459-56.179 18.159-66.039 10.994-11.405-8.286-11.622-35.718-9.771-61.316h221.218zm77.188 27.284c0 12.433-8.843 22.942-20.891 26.219-1.175-18.801-4.323-38.247-9.833-53.503h1.871c15.909 0 28.853 12.24 28.853 27.284zm-36.33-56.652c0 5.166-4.202 9.368-9.368 9.368h-284.198c-5.166 0-9.368-4.203-9.368-9.368v-19.369c0-5.166 4.202-9.368 9.368-9.368h97.103c5.522 0 10-4.477 10-10s-4.478-10-10-10h-86.029c2.52-48.315 23.52-85.407 61.119-107.662 56.921-33.691 149.685-30.46 223.415 7.118-1.319 4.35-2.04 8.945-2.04 13.702 0 8.265 2.144 16.051 5.911 22.878-7.19 3.593-14.315 7.043-21.33 10.336-5.231-10.371-11.749-20.17-19.463-29.147-3.599-4.188-9.913-4.667-14.103-1.067-4.188 3.6-4.666 9.913-1.066 14.102 17.038 19.827 27.297 44.279 29.438 69.74h-85.853c-5.522 0-10 4.477-10 10s4.478 10 10 10h97.095c5.166 0 9.368 4.203 9.368 9.368v19.369z"
                    fill="#F3C65D" data-original="#000000" class="" />
                <path
                    d="m293.808 272.501c5.522 0 10-4.477 10-10s-4.478-10-10-10h-.008c-5.522 0-9.996 4.477-9.996 10s4.481 10 10.004 10z"
                    fill="#F3C65D" data-original="#000000" class="" />
                <path
                    d="m173.803 272.501c5.522 0 10-4.477 10-10s-4.478-10-10-10h-.007c-5.522 0-9.997 4.477-9.997 10s4.481 10 10.004 10z"
                    fill="#F3C65D" data-original="#000000" class="" />
                <path
                    d="m268.802 317.135c-4.785-2.762-10.898-1.123-13.66 3.66-4.388 7.6-12.565 12.321-21.34 12.321s-16.952-4.721-21.34-12.32c-2.76-4.783-8.874-6.421-13.66-3.661-4.782 2.761-6.422 8.877-3.66 13.66 7.948 13.769 22.762 22.321 38.66 22.321 15.897 0 30.711-8.553 38.66-22.321 2.762-4.782 1.123-10.898-3.66-13.66z"
                    fill="#F3C65D" data-original="#000000" class="" />
                <path
                    d="m233.809 151.126h-.007c-5.522 0-9.996 4.477-9.996 10s4.48 10 10.003 10 10-4.477 10-10-4.478-10-10-10z"
                    fill="#F3C65D" data-original="#000000" class="" />
            </g>
        </g>
    </g>
</svg>